<svg width="10" height="6" viewBox="0 0 10 6" fill="none" xmlns="http://www.w3.org/2000/svg">
<path fill-rule="evenodd" clip-rule="evenodd" d="M9.68002 5.68472H9.67986C9.47354 5.88806 9.19905 6 8.90722 6C8.61523 6 8.34074 5.88806 8.13457 5.68472L4.99985 2.59834L1.86559 5.68562C1.4394 6.10444 0.746478 6.10444 0.320898 5.68577C0.11427 5.48273 0.00030492 5.21271 6.07864e-07 4.9253C-0.000303704 4.6373 0.113661 4.36667 0.320593 4.16288L4.22781 0.314827C4.43398 0.111785 4.70817 0 4.99985 0C5.2929 0 5.56769 0.112085 5.7725 0.314977L9.68002 4.16288C9.88619 4.36622 10 4.6364 10 4.9238C10 5.21136 9.88619 5.48153 9.68002 5.68472Z" fill="white"/>
</svg>
